<svg width="80" height="36" xmlns="http://www.w3.org/2000/svg">
<path d="M18.1135 35.3196C27.6789 35.3196 35.4331 27.5654 35.4331 18C35.4331 8.43466 27.6789 0.68042 18.1135 0.68042C8.54819 0.68042 0.793945 8.43466 0.793945 18C0.793945 27.5654 8.54819 35.3196 18.1135 35.3196Z" fill="#50FAAB"/>
<path d="M15.5152 7.60825L10.3193 12.8041H15.5152V18L10.3193 23.1959H15.5152V28.3917L20.7111 23.1959H15.5152V18L20.7111 12.8041H15.5152V7.60825Z" fill="white"/>
<path fill-rule="evenodd" clip-rule="evenodd" d="M20.7111 23.1959C21.7346 23.1959 22.7481 22.9943 23.6937 22.6026C24.6392 22.2109 25.4984 21.6368 26.2221 20.9131C26.9459 20.1894 27.52 19.3302 27.9116 18.3846C28.3033 17.439 28.5049 16.4256 28.5049 15.4021C28.5049 14.3786 28.3033 13.3651 27.9116 12.4195C27.52 11.4739 26.9459 10.6147 26.2221 9.891C25.4984 9.16728 24.6392 8.59319 23.6937 8.20151C22.7481 7.80984 21.7346 7.60825 20.7111 7.60825L15.5152 7.60825V12.8041H10.3193V18H15.5152V23.1959H10.3193V28.3917H15.5152V23.1959H20.7111ZM20.7111 18V12.8041H15.5152V18H20.7111Z" fill="#211F35"/>
<path fill-rule="evenodd" clip-rule="evenodd" d="M110.151 24.9321C109.276 25.6464 108.082 26.0089 106.568 26.0089C104.809 26.0089 103.423 25.4865 102.41 24.431C101.397 23.3754 100.896 21.9041 100.896 20.0062C100.896 18.1191 101.397 16.6371 102.41 15.5815C103.423 14.526 104.809 14.0036 106.568 14.0036C108.242 14.0036 109.596 14.5367 110.609 15.6135C111.622 16.6904 112.134 18.0871 112.134 19.793L112.027 20.9871H104.063C104.329 22.5118 105.161 23.2795 106.568 23.2795C107.123 23.2795 107.549 23.1942 107.837 23.0129C108.067 22.8765 108.29 22.6719 108.496 22.4046H111.857C111.534 23.4185 110.968 24.2639 110.151 24.9321ZM106.568 16.733C105.289 16.733 104.457 17.3834 104.063 18.6948H108.967C108.85 18.1404 108.594 17.6713 108.178 17.2981C107.762 16.9249 107.218 16.733 106.568 16.733Z" fill="white"/>
<path d="M95.4367 10.5064H98.4463L98.4967 25.7957H95.4367V10.5064Z" fill="white"/>
<path fill-rule="evenodd" clip-rule="evenodd" d="M49.9323 20.9871V25.7957H46.6484V10.5064H52.9816C54.5489 10.5064 55.839 10.9969 56.8413 11.9778C57.8328 12.9694 58.3339 14.2275 58.3339 15.7521C58.3339 17.2768 57.8328 18.5349 56.8413 19.5158C55.839 20.4967 54.5489 20.9871 52.9816 20.9871H49.9323ZM52.6618 13.4598H49.9323V18.0444H52.6618C54.1651 18.0444 55.0607 17.1702 55.0607 15.7521C55.0607 14.3341 54.1651 13.4598 52.6618 13.4598Z" fill="white"/>
<path d="M82.2151 25.7947V23.0653H76.7562L82.1085 16.5188V14.2265H73.0459V16.956H78.1743L72.822 23.5024V25.7947H82.2151Z" fill="white"/>
<path d="M93.1381 25.7947V23.0653H87.6792L93.0315 16.5188V14.2265H83.9688V16.956H89.0972L83.7449 23.5024V25.7947H93.1381Z" fill="white"/>
<path d="M65.3149 22.7358C66.441 22.7339 67.4958 21.8647 67.4958 20.8958V14.1749L70.5557 14.174L70.5557 20.8928L70.5518 20.8958C70.5041 22.3557 70.0149 23.5655 69.0844 24.5163C68.1035 25.5079 66.8454 26.009 65.3207 26.009H65.309C63.7844 26.009 62.5263 25.5079 61.5454 24.5163C60.6148 23.5655 60.1256 22.3557 60.0779 20.8958L60.074 20.8928L60.074 14.174L63.134 14.1749V20.8958C63.134 21.8647 64.1887 22.7339 65.3149 22.7358Z" fill="white"/>
</svg>
